<svg xmlns="http://www.w3.org/2000/svg" viewBox="0 0 520 460" role="img" aria-labelledby="dogTitle dogDesc">
  <title id="dogTitle">Do Stuff dog mascot</title>
  <desc id="dogDesc">A cheerful cartoon dog with a bandana, pencil, and playful doodle style.</desc>
  <defs>
    <filter id="shadow" x="-20%" y="-20%" width="140%" height="140%">
      <feDropShadow dx="10" dy="12" stdDeviation="0" flood-color="#10233f" flood-opacity="1" />
    </filter>
  </defs>
  <g filter="url(#shadow)">
    <path d="M100 313c-33-11-53-34-53-66 0-38 28-69 66-71 14-51 58-87 112-87 37 0 70 17 92 44 13-8 28-13 45-13 46 0 83 37 83 83 0 19-6 36-17 50 18 15 29 38 29 63 0 46-37 83-83 83H133c-18 0-32-14-33-32z" fill="#fffaf0" stroke="#10233f" stroke-width="12" stroke-linejoin="round" />
    <path d="M126 174c-45-32-67-68-55-93 12-24 55-15 99 21 23 19 38 41 41 62z" fill="#ffb24a" stroke="#10233f" stroke-width="12" stroke-linejoin="round" />
    <path d="M315 153c26-54 65-84 93-70 28 13 28 58 0 106-16 27-39 45-65 49z" fill="#ffb24a" stroke="#10233f" stroke-width="12" stroke-linejoin="round" />
    <path d="M111 270c-18 23-27 51-21 78 8 41 46 66 93 61" fill="none" stroke="#10233f" stroke-width="12" stroke-linecap="round" />
    <path d="M392 274c23 21 34 50 27 78-9 39-46 63-91 58" fill="none" stroke="#10233f" stroke-width="12" stroke-linecap="round" />
    <path d="M149 193c18-56 66-94 123-94 74 0 134 64 134 143 0 82-64 148-143 148-76 0-138-58-138-130 0-25 8-48 24-67z" fill="#ffffff" stroke="#10233f" stroke-width="12" stroke-linejoin="round" />
    <path d="M136 219c5-49 42-94 89-112 4 57-26 103-88 134z" fill="#ffcf70" stroke="#10233f" stroke-width="10" stroke-linejoin="round" />
    <path d="M302 102c45 13 81 49 95 96-58 4-93-24-101-89z" fill="#ffcf70" stroke="#10233f" stroke-width="10" stroke-linejoin="round" />
    <circle cx="211" cy="235" r="14" fill="#10233f" />
    <circle cx="321" cy="235" r="14" fill="#10233f" />
    <path d="M266 264c22 0 38 13 38 28 0 17-18 31-38 31s-38-14-38-31c0-15 16-28 38-28z" fill="#10233f" />
    <path d="M224 326c14 18 36 28 61 27 23-1 42-12 53-30" fill="none" stroke="#10233f" stroke-width="10" stroke-linecap="round" />
    <path d="M187 196c-19-13-44-13-62 1" fill="none" stroke="#10233f" stroke-width="10" stroke-linecap="round" />
    <path d="M344 196c19-13 44-13 62 1" fill="none" stroke="#10233f" stroke-width="10" stroke-linecap="round" />
    <path d="M154 356c34 26 72 39 113 39 46 0 86-15 120-44l10 56c-82 51-164 51-252 0z" fill="#25c7d9" stroke="#10233f" stroke-width="10" stroke-linejoin="round" />
    <circle cx="265" cy="389" r="19" fill="#ffd23f" stroke="#10233f" stroke-width="8" />
    <path d="M430 94l43-23 13 24-43 23z" fill="#ffd23f" stroke="#10233f" stroke-width="8" stroke-linejoin="round" />
    <path d="M438 118l35-19" stroke="#10233f" stroke-width="7" stroke-linecap="round" />
    <path d="M70 120c-15-17-15-36 0-54 20 17 20 35 0 54z" fill="#ff5b4a" stroke="#10233f" stroke-width="8" stroke-linejoin="round" />
    <path d="M60 411c24-3 43-17 57-42" fill="none" stroke="#10233f" stroke-width="10" stroke-linecap="round" />
    <path d="M445 342c20 7 32 19 38 36" fill="none" stroke="#10233f" stroke-width="10" stroke-linecap="round" />
  </g>
</svg>
